Simulation
nRows=40
nColumns=15
endheader
time  TH_x TH_y TH_z SC_y  SC_z  SC_x  AC_y  AC_z  AC_x  GH_y  GH_z  GH_yy  EL_x  PS_y
1.55  0.000000  0.000000  0.000000  -33.69702713889587  5.718916760869801  42.24815298165494  53.483757900284196  -8.933304424703055  -9.197452654332036  13.007642167684098  55.63639617329796  -6.500463855879601  18.55864724490366  0.000000
1.581  0.000000  0.000000  0.000000  -33.14316575953882  5.321450755587243  41.80963427995378  52.58480492614903  -8.278229795429361  -10.50554474402585  15.430615929507608  56.26812014386557  -8.26019210919039  18.370828899366323  0.000000
1.612  0.000000  0.000000  0.000000  -33.224769829583636  5.203931655768121  41.71360212912672  52.14129237185413  -8.272020085415457  -11.08403893924417  17.14300095643921  56.85350854080398  -9.662823411813235  18.18370584904184  0.000000
1.643  0.000000  0.000000  0.000000  -33.23086232328736  5.0924188388796585  41.741560421866424  51.90091892477887  -8.304858542865267  -11.676966403310702  18.51193769900184  57.17225815013078  -10.642057293702278  18.151557049463918  0.000000
1.674  0.000000  0.000000  0.000000  -33.286959081652704  5.0189879584273855  41.98045036093178  51.575977178490234  -8.377776534588357  -12.12911675444704  19.52420953095498  57.39447090574267  -11.442571126459674  18.122010163789106  0.000000
1.705  0.000000  0.000000  0.000000  -33.26668503323582  4.946532208060011  42.22401690530426  51.51934775600961  -8.558172143707734  -12.564430924537662  20.23994128185867  57.47828010227971  -11.997878095481635  18.093281332145345  0.000000
1.736  0.000000  0.000000  0.000000  -33.3400067385472  4.89144078742633  42.57052922767436  51.34367556999714  -8.762578469710245  -12.875714082873504  20.76752915857117  57.519979547169974  -12.45674576226995  18.07077747349828  0.000000
1.767  0.000000  0.000000  0.000000  -33.32808436313563  4.817537968785248  42.81340774232086  51.37325134275907  -8.997226274393558  -13.233186131906185  21.169763029095655  57.43895702741612  -12.812568421463888  18.050846351916455  0.000000
1.798  0.000000  0.000000  0.000000  -33.38123926650816  4.747230940798868  43.11611945008933  51.220453092980314  -9.204152792619936  -13.521548449505461  21.49033893340709  57.30190656614212  -13.117552830624332  18.0484396268876  0.000000
1.829  0.000000  0.000000  0.000000  -33.3537451787565  4.655435310221469  43.274411459130526  51.27757735930876  -9.447549315697916  -13.850156138515485  21.72968747721807  57.04482073339495  -13.369709124682153  18.03694742506323  0.000000
1.8599999999999999  0.000000  0.000000  0.000000  -33.395228129029675  4.564310565513254  43.47882856359204  51.15029706593671  -9.663924900217442  -14.112504878948059  21.92962999699789  56.72437194666921  -13.588165705886077  18.040972006577345  0.000000
1.891  0.000000  0.000000  0.000000  -33.351940167313614  4.447334922616998  43.52465761637131  51.221224585798176  -9.909222419787694  -14.424239669429829  22.08690478536182  56.278090767326184  -13.781038085796427  18.040905076972237  0.000000
1.922  0.000000  0.000000  0.000000  -33.37543438740575  4.327805062250627  43.61902741068811  51.10257905234901  -10.121459068653412  -14.679749969588654  22.23350865832379  55.76134455220791  -13.950537311819376  18.05537690752972  0.000000
1.953  0.000000  0.000000  0.000000  -33.31576366864544  4.1825396064473885  43.558571917620505  51.17825798332159  -10.370200490318075  -14.985215285618814  22.352101471945385  55.11875152623077  -14.101902744249207  18.067835579189854  0.000000
1.984  0.000000  0.000000  0.000000  -33.32464373077555  4.033544782657873  43.553941111017274  51.06616236400577  -10.588282650634886  -15.23642453994705  22.470634006552437  54.407081229169776  -14.23283738075465  18.09173353326995  0.000000
2.015  0.000000  0.000000  0.000000  -33.250174466161106  3.8591867172622023  43.402796031893615  51.14050587379663  -10.847156313936003  -15.541951710468918  22.570533786583507  53.57321044352887  -14.346628823261472  18.117018580884412  0.000000
2.046  0.000000  0.000000  0.000000  -33.244305417071295  3.6801849336237185  43.31591107004945  51.025491491194565  -11.074815762766283  -15.796845484089353  22.67714772532923  52.67409209310851  -14.441072093739027  18.15171533604253  0.000000
2.077  0.000000  0.000000  0.000000  -33.15613335099843  3.477891526943333  43.09246015274052  51.09124951434219  -11.350447051018635  -16.107751080523034  22.767181091839156  51.65983573709979  -14.514237230080994  18.189427496174066  0.000000
2.108  0.000000  0.000000  0.000000  -33.13714044651594  3.2710233006227774  42.94069325757951  50.96658582987216  -11.59571882196933  -16.36829668045327  22.86566454160964  50.58641688352807  -14.566452187992013  18.234737655139178  0.000000
2.139  0.000000  0.000000  0.000000  -33.03620381679963  3.0433755420538118  42.66139696725129  51.01697077534996  -11.894582104443687  -16.686846465230747  22.947259607878927  49.40631263934472  -14.591562964785725  18.284513929310478  0.000000
2.17  0.000000  0.000000  0.000000  -33.00459330434229  2.8116693182688364  42.460077999724845  50.875143337458056  -12.16287300444897  -16.953879898480228  23.03676418649569  48.1731817414406  -14.592844001995013  18.34057888974912  0.000000
2.201  0.000000  0.000000  0.000000  -32.891547103618194  2.562281576150999  42.13964228426492  50.90353034810801  -12.490039208123333  -17.28072644721111  23.10648724540641  46.84258046783232  -14.559893904311725  18.401848085464064  0.000000
2.232  0.000000  0.000000  0.000000  -32.84793605297315  2.309700491526035  41.90265601823908  50.738114337293204  -12.78593208459004  -17.553107674693045  23.17952406011939  45.46475778495114  -14.497056334380643  18.467827977170888  0.000000
2.263  0.000000  0.000000  0.000000  -32.72280298421335  2.0427519933225406  41.55497281867749  50.737337357041746  -13.14494636091648  -17.889509068905646  23.227224277548228  43.99902568270533  -14.391217233889908  18.53982729813284  0.000000
2.294  0.000000  0.000000  0.000000  -32.66766371258018  1.7742257546488858  41.29552763229185  50.53870492491316  -13.470982901109481  -18.170089595924697  23.272063337009115  42.49243384190623  -14.248052613000148  18.615337877037636  0.000000
2.325  0.000000  0.000000  0.000000  -32.531910741626675  1.4958655659818694  40.931701051408794  50.499586882321815  -13.861997880240088  -18.518152254058617  23.28533730221405  40.907224633354154  -14.05341227380431  18.696131901053825  0.000000
2.356  0.000000  0.000000  0.000000  -32.46460225774842  1.2166067936363731  40.65842281338344  50.25890655342695  -14.21360027529029  -18.808787392367385  23.29000962050108  39.28812442059199  -13.813548197065753  18.781206338554778  0.000000
2.387  0.000000  0.000000  0.000000  -32.31669753762771  0.9314529337998859  40.28873294539412  50.17682929029148  -14.63534450029564  -19.168319292456694  23.252197636250685  37.60243691126087  -13.51040385064698  18.87149394712387  0.000000
2.418  0.000000  0.000000  0.000000  -32.23755295436434  0.6477845168117785  40.01516336386617  49.89364417547936  -15.015546270596918  -19.46454477979556  23.19394467159979  35.88922033042546  -13.149501129969458  18.96557324199589  0.000000
2.449  0.000000  0.000000  0.000000  -32.078229745834676  0.36329346656529665  39.653951393331184  49.76622397624847  -15.469088072889855  -19.83411256307916  23.08441960015806  34.12047120189439  -12.715094407896348  19.065362185994456  0.000000
2.48  0.000000  0.000000  0.000000  -31.986264741537312  0.08188637222917865  39.39276183673021  49.43814085793803  -15.875434258622144  -20.136910733727657  22.93994518042151  32.3318393598316  -12.20982991943074  19.168403901479124  0.000000
2.511  0.000000  0.000000  0.000000  -31.814012403889315  -0.196308317353932  39.05314250829439  49.26474726455761  -16.358483877763703  -20.517210129112783  22.727954944269158  30.49992000230555  -11.615839789139864  19.27693430000478  0.000000
2.542  0.000000  0.000000  0.000000  -31.708792074048365  -0.4687134937504914  38.81712748488817  48.89256974780807  -16.788208640622553  -20.826565888355226  22.461618729781083  28.65691611079065  -10.93366173881852  19.38910845089465  0.000000
2.573  0.000000  0.000000  0.000000  -31.523560810137866  -0.7335173506327404  38.511750212944115  48.67478740560314  -17.29764357418694  -21.218030532875403  22.1066511289004  26.78478585486131  -10.144734698967545  19.506542849808053  0.000000
2.604  0.000000  0.000000  0.000000  -31.404575802700265  -0.990524871714581  38.314670310257945  48.26209131347839  -17.746592529502156  -21.534268533200837  21.66753555079152  24.912699657275912  -9.241386109282615  19.628333220861812  0.000000
2.635  0.000000  0.000000  0.000000  -31.205839776528094  -1.235136337736924  38.057847704440285  48.0047119399729  -18.278352658260182  -21.93814155008631  21.10983768112077  23.029904640622366  -8.207559093533883  19.754912904879134  0.000000
2.666  0.000000  0.000000  0.000000  -31.07237209660904  -1.470286605018882  37.91745619888897  47.55846619540697  -18.74167163333275  -22.262875851434146  20.41679540525811  21.161839425664116  -7.013941920905282  19.88756003961825  0.000000
2.697  0.000000  0.000000  0.000000  -30.858259048618443  -1.689714316290549  37.73023510124898  47.27076898454999  -19.290258705336097  -22.68468427209728  19.551747686214853  19.30801409179478  -5.647018393142845  20.022679917282574  0.000000
2.7279999999999998  0.000000  0.000000  0.000000  -30.708560016153196  -1.8983813190669796  37.67579542836926  46.799480418301634  -19.76044912026173  -23.027910254723086  18.44812108564508  17.48757294007228  -4.0260007443404  20.16657560059494  0.000000
2.759  0.000000  0.000000  0.000000  -30.476363774649236  -2.0897306369166078  37.59446320051186  46.49386857285724  -20.316480931275176  -23.488065825768164  17.05460053638251  15.714092130594706  -2.1288702655914484  20.30713439104903  0.000000
